# xmcd
#
# Track frame offsets:
#	150
#	18124
#	25546
#	29418
#	41444
#	57896
#	74510
#	84642
#	100943
#	109378
#	123326
#	139641
#	150423
#	169310
#	178834
#
# Disc length: 2557 seconds
#
# Revision: 0
# Processed by: cddbd v1.5.1PL2 Copyright (c) Steve Scherf et al.
# Submitted via: SynApp - FreeCDDB Version: 2.2
#
DISCID=c009fb0f
DTITLE=ELVIS PRESLEY - LOVE AT STAGE IN MEMPHIS
DYEAR=0000
DGENRE=AlternRock
TTITLE0=Elvis Presley - An American Trilogy
TTITLE1=Elvis Presley - Can t Help Falling In Love
TTITLE2=Elvis Presley - Closing-Vamp
TTITLE3=Elvis Presley - Help Me
TTITLE4=Elvis Presley - How Great Thou Art
TTITLE5=Elvis Presley - I Got A Woman
TTITLE6=Elvis Presley - Lawdy, Miss Claudy
TTITLE7=Elvis Presley - Let Me Be There
TTITLE8=Elvis Presley - Love Me
TTITLE9=Elvis Presley - Medley- Blueberry Hill-I Can t
TTITLE10=Elvis Presley - Medley- Long Tall Sally-Whole
TTITLE11=Elvis Presley - My Baby Left Me
TTITLE12=Elvis Presley - See See Rider
TTITLE13=Elvis Presley - Trying To Get To You
TTITLE14=Elvis Presley - Why Me Lord
EXTD=
EXTT0=
EXTT1=
EXTT2=
EXTT3=
EXTT4=
EXTT5=
EXTT6=
EXTT7=
EXTT8=
EXTT9=
EXTT10=
EXTT11=
EXTT12=
EXTT13=
EXTT14=
PLAYORDER=
